<?xml version="1.0" standalone="no"?>
<!DOCTYPE svg PUBLIC "-//W3C//DTD SVG 20010904//EN"
 "http://www.w3.org/TR/2001/REC-SVG-20010904/DTD/svg10.dtd">
<svg version="1.0" xmlns="http://www.w3.org/2000/svg"
 width="733.000000pt" height="665.000000pt" viewBox="0 0 733.000000 665.000000"
 preserveAspectRatio="xMidYMid meet">

<g transform="translate(0.000000,665.000000) scale(0.100000,-0.100000)"
fill="#000000" stroke="none">
<path d="M3325 5813 c-16 -2 -50 -6 -74 -9 l-43 -6 6 -41 c4 -24 9 -83 11
-132 7 -135 28 -363 34 -373 8 -12 269 11 298 26 12 7 32 27 45 44 22 32 23
40 21 191 -2 145 -4 163 -27 212 -35 76 -69 95 -166 93 -41 0 -88 -3 -105 -5z
m125 -145 c7 -18 15 -84 18 -147 8 -124 2 -145 -42 -153 -22 -4 -25 -1 -30 36
-7 57 -18 190 -20 248 -2 48 -2 48 30 48 27 0 34 -5 44 -32z"/>
<path d="M3969 5804 c-3 -56 -9 -100 -29 -208 -12 -66 -22 -129 -22 -140 0
-12 -7 -56 -14 -100 -18 -101 -19 -96 14 -96 15 0 62 -7 105 -15 126 -24 170
-21 212 16 52 46 63 73 86 220 25 155 18 217 -29 261 -41 39 -62 47 -153 58
-46 5 -103 13 -126 16 -37 6 -43 4 -44 -12z m190 -130 c26 -18 26 -2 2 -201
-11 -89 -30 -123 -71 -123 -28 0 -29 2 -26 38 9 90 52 302 61 302 6 0 21 -7
34 -16z"/>
<path d="M3000 5765 c-25 -7 -88 -23 -140 -35 -52 -13 -98 -26 -102 -29 -4 -3
0 -31 8 -61 8 -30 17 -67 19 -81 2 -15 13 -61 25 -104 12 -43 23 -90 25 -106
2 -15 14 -64 26 -109 l23 -82 35 5 c20 2 77 14 126 26 50 13 109 27 133 33 23
6 42 14 42 17 0 10 -31 115 -35 119 -2 2 -36 -6 -77 -18 -40 -12 -80 -23 -89
-26 -12 -3 -19 6 -28 40 -6 25 -11 47 -11 49 0 3 38 15 85 28 67 19 84 27 79
39 -3 8 -8 32 -11 53 -3 21 -9 40 -14 42 -4 3 -44 -3 -88 -14 l-80 -18 -12 34
c-6 19 -7 38 -3 42 12 11 125 41 153 41 25 0 25 -2 0 93 -11 41 -17 43 -89 22z"/>
<path d="M4459 5719 c-2 -34 -13 -78 -75 -285 -13 -44 -24 -85 -24 -91 0 -6
-9 -39 -20 -74 -11 -35 -19 -68 -16 -74 4 -11 49 -27 112 -40 29 -6 31 -4 47
47 9 29 18 67 21 83 3 17 15 57 26 90 11 33 23 73 26 90 2 16 13 57 24 90 10
33 21 78 25 101 l6 40 -48 13 c-88 23 -103 24 -104 10z"/>
<path d="M2585 5651 c-53 -19 -95 -43 -95 -54 0 -14 58 -159 89 -222 10 -22
17 -42 15 -44 -5 -5 1 -12 -74 89 -34 47 -76 100 -92 118 -32 38 -26 38 -138
-11 -57 -25 -55 -21 -36 -54 15 -27 84 -189 164 -390 20 -51 41 -93 46 -93 5
0 35 10 67 21 63 23 68 32 45 82 -36 79 -95 221 -93 224 2 1 23 -24 48 -56 90
-119 142 -181 152 -181 19 0 147 54 147 62 0 9 -39 106 -70 174 -10 22 -34 81
-53 130 -20 49 -42 103 -51 119 -9 17 -16 37 -16 45 -1 15 -23 51 -31 49 -2
-1 -13 -4 -24 -8z"/>
<path d="M4751 5617 c-67 -24 -122 -130 -107 -209 4 -23 27 -58 66 -103 60
-68 69 -90 50 -126 -24 -44 -77 -11 -66 41 5 29 3 32 -42 50 -26 11 -55 25
-66 31 -27 16 -37 0 -42 -67 -6 -73 7 -99 67 -139 80 -54 197 -67 256 -29 31
20 73 106 73 149 0 53 -21 94 -84 162 -31 33 -56 69 -56 80 0 25 19 43 46 43
27 0 38 -24 23 -52 -6 -11 -9 -21 -7 -23 2 -2 32 -15 67 -30 71 -30 75 -28 86
37 14 82 -38 146 -145 180 -64 21 -73 21 -119 5z"/>
<path d="M5073 5453 c-17 -27 -28 -54 -25 -61 2 -7 21 -22 43 -32 21 -11 39
-23 39 -25 0 -5 -127 -230 -150 -265 -5 -8 -20 -37 -34 -63 l-24 -48 37 -24
c19 -14 41 -25 47 -25 6 0 17 -7 24 -16 12 -13 16 -12 36 13 13 15 23 31 24
34 0 4 38 73 85 155 47 81 85 152 85 157 0 5 21 -3 46 -17 26 -14 50 -26 55
-26 4 0 21 26 37 59 l30 58 -31 16 c-18 9 -59 32 -92 52 -33 19 -76 42 -95 51
-19 9 -47 25 -62 35 -14 11 -31 19 -36 19 -6 0 -23 -21 -39 -47z"/>
<path d="M2075 5413 c-33 -19 -61 -36 -63 -38 -1 -1 45 -87 104 -191 59 -104
115 -202 124 -219 9 -16 24 -42 33 -57 l18 -26 62 35 c34 19 63 36 65 38 5 5
-50 110 -59 113 -5 2 -9 8 -9 12 0 12 -188 341 -203 357 -9 9 -26 3 -72 -24z"/>
<path d="M5408 5178 c-160 -214 -227 -301 -247 -322 l-20 -21 58 -48 c32 -26
63 -47 67 -47 5 1 32 32 59 71 66 93 80 105 100 89 25 -21 17 -52 -35 -129
-27 -41 -50 -77 -50 -81 0 -7 124 -110 134 -110 3 0 6 11 6 25 0 13 18 48 40
77 60 79 75 116 62 150 -9 26 -8 28 14 28 43 0 91 27 117 65 22 32 25 48 24
101 -2 56 -5 66 -32 91 -30 29 -209 163 -216 163 -3 0 -39 -46 -81 -102z m164
-105 c25 -22 23 -42 -9 -75 -31 -32 -53 -35 -76 -10 -15 16 -13 20 19 60 20
23 38 42 42 42 3 0 14 -7 24 -17z"/>
<path d="M1789 5228 c-24 -18 -77 -56 -117 -85 l-72 -53 65 -88 c36 -48 95
-127 130 -177 131 -180 146 -198 158 -183 7 8 38 32 71 54 79 52 144 111 160
143 18 37 12 104 -14 145 -33 54 -66 76 -116 76 -42 0 -42 1 -36 28 13 48 2
82 -42 128 -39 40 -47 44 -92 44 -40 0 -59 -6 -95 -32z m100 -150 c14 -24 14
-28 -3 -47 -25 -28 -29 -27 -59 16 -20 28 -24 40 -15 50 18 22 61 11 77 -19z
m125 -157 c32 -33 32 -67 1 -87 -19 -13 -24 -10 -57 35 -34 45 -35 49 -20 64
25 23 45 20 76 -12z"/>
<path d="M1402 4910 l-73 -80 34 -43 c19 -23 60 -77 91 -119 l57 -78 -48 28
c-26 16 -68 42 -93 59 -25 16 -61 39 -80 50 l-35 21 -72 -78 -73 -78 153 -144
c83 -80 176 -166 205 -193 l53 -49 52 52 52 53 -60 57 c-33 32 -94 88 -135
125 -60 55 -67 64 -35 45 22 -13 52 -31 65 -41 53 -38 178 -115 197 -121 14
-4 29 5 56 32 l38 39 -93 122 c-51 68 -102 135 -113 149 -11 15 23 -11 74 -58
163 -148 182 -163 190 -154 5 5 25 28 46 52 l38 43 -39 41 c-39 40 -372 348
-376 348 -2 0 -36 -36 -76 -80z"/>
<path d="M5681 4764 c-105 -108 -191 -202 -191 -209 0 -13 86 -95 100 -95 9 0
384 377 389 391 3 11 -86 109 -100 109 -4 0 -93 -88 -198 -196z"/>
<path d="M3519 4900 c-30 -9 -75 -35 -107 -64 -81 -71 -104 -237 -59 -407 31
-116 75 -284 83 -322 4 -17 1 -35 -10 -50 -8 -12 -42 -59 -73 -104 -55 -79
-120 -170 -246 -347 -49 -69 -129 -210 -127 -226 0 -3 -9 -33 -21 -67 -18 -54
-20 -82 -17 -200 l3 -138 47 -95 c32 -65 65 -113 102 -150 l54 -55 -84 -100
c-46 -55 -125 -149 -175 -210 -167 -202 -178 -213 -199 -208 -27 7 -53 -16
-46 -41 3 -14 -3 -29 -19 -45 -50 -48 -18 -116 55 -116 34 0 47 6 64 28 14 17
31 27 48 27 31 0 45 27 24 48 -16 16 -2 37 235 332 56 69 119 148 142 177 l41
51 43 -29 c24 -17 43 -28 43 -25 0 3 24 -6 53 -19 29 -14 73 -28 98 -32 58
-10 251 -10 314 0 l51 8 17 -68 c9 -37 28 -115 42 -172 44 -181 28 -298 -50
-377 -64 -63 -151 -80 -239 -45 l-29 12 44 22 c80 40 112 122 90 229 -20 95
-92 158 -183 158 -51 0 -90 -21 -125 -67 -26 -35 -28 -42 -28 -137 1 -92 3
-105 28 -148 31 -52 88 -107 139 -135 27 -15 57 -18 168 -18 119 0 140 3 175
22 154 82 183 249 97 558 -11 39 -25 95 -32 125 -7 30 -15 60 -17 66 -2 7 20
26 51 43 101 58 185 163 243 303 23 56 26 77 27 183 0 115 -2 123 -33 189 -38
82 -93 150 -176 219 -33 27 -61 54 -63 58 -3 8 30 52 233 304 57 72 147 184
200 250 195 246 281 355 323 405 46 57 50 68 26 77 -21 8 -56 -27 -182 -182
-59 -71 -113 -137 -122 -145 -9 -8 -58 -67 -109 -130 -52 -63 -115 -140 -141
-170 -27 -30 -89 -104 -139 -165 -177 -214 -175 -213 -197 -204 -12 4 -64 13
-116 19 l-95 12 -23 82 c-12 44 -24 92 -26 106 -3 14 -14 56 -25 93 l-20 68
50 77 c96 147 212 342 236 394 63 138 71 256 25 353 -28 58 -36 66 -92 94 -55
28 -70 31 -152 30 -50 0 -103 -4 -117 -9z m106 -121 c22 -6 54 -27 73 -46 32
-34 33 -38 31 -109 -3 -98 -39 -188 -132 -326 -40 -60 -74 -108 -77 -108 -3 0
-26 78 -50 173 -64 249 -60 346 16 406 30 24 77 27 139 10z m-90 -1062 c15
-64 26 -120 23 -123 -3 -2 -14 -6 -25 -8 -43 -9 -161 -76 -190 -109 -17 -20
-46 -65 -64 -102 -40 -81 -49 -185 -26 -280 9 -33 16 -51 16 -40 2 39 51 159
85 211 37 55 128 126 179 137 15 4 38 10 51 13 25 6 29 1 41 -61 18 -93 21
-84 -65 -185 -44 -52 -131 -157 -193 -232 -61 -76 -117 -138 -122 -138 -18 0
-65 83 -88 155 -43 138 -23 325 51 465 53 101 63 118 126 215 99 150 159 228
166 213 4 -7 20 -66 35 -131z m219 -306 c3 -4 -3 -16 -13 -25 -17 -16 -19 -16
-25 -1 -3 9 -4 21 0 26 7 11 31 12 38 0z m160 -65 c143 -91 184 -240 118 -427
-33 -95 -64 -149 -110 -192 l-29 -28 -18 68 c-9 37 -28 113 -42 168 -13 55
-34 134 -45 175 -41 150 -42 147 9 212 24 32 49 58 54 58 6 0 34 -15 63 -34z
m-237 -198 c0 -7 10 -49 23 -93 13 -44 24 -89 25 -100 2 -12 13 -56 25 -99 12
-43 23 -90 25 -105 3 -14 9 -42 15 -61 15 -52 13 -56 -30 -74 -28 -11 -72 -16
-143 -16 -97 0 -106 2 -172 34 -39 19 -83 46 -99 60 -34 29 -42 14 87 173 45
56 116 145 157 197 76 96 86 106 87 84z"/>
<path d="M5956 4695 c-65 -35 -205 -153 -239 -202 -44 -64 -43 -120 4 -193 42
-65 106 -110 158 -110 30 0 105 33 144 63 25 21 21 37 -27 91 l-44 48 -46 -32
c-51 -34 -79 -36 -84 -4 -4 30 28 65 139 149 102 76 127 87 149 60 14 -17 6
-31 -40 -71 l-24 -22 39 -48 c22 -26 43 -52 47 -58 11 -17 97 73 108 114 18
68 -12 136 -92 204 -36 31 -49 36 -93 36 -36 0 -66 -8 -99 -25z"/>
<path d="M6283 4408 c-29 -18 -53 -38 -53 -44 0 -5 11 -25 25 -44 27 -36 31
-50 15 -50 -5 0 -40 -20 -77 -43 -37 -24 -75 -47 -83 -51 -56 -25 -185 -117
-185 -131 0 -23 57 -115 72 -115 6 0 39 17 73 38 33 20 83 51 109 67 27 17 79
47 116 69 63 37 67 38 80 20 8 -11 15 -22 15 -26 0 -4 7 -14 16 -22 14 -14 20
-13 64 9 27 14 51 29 54 34 6 9 -8 35 -104 191 -25 41 -52 87 -60 103 -7 15
-16 27 -19 27 -3 0 -30 -15 -58 -32z"/>
<path d="M977 4391 c-44 -39 -87 -123 -87 -170 1 -93 79 -173 260 -267 44 -22
69 -28 122 -29 61 0 69 3 98 30 62 60 90 113 90 174 0 36 -6 66 -17 81 -31 47
-103 105 -190 155 -81 46 -94 50 -164 53 -73 4 -77 3 -112 -27z m173 -152 c89
-53 171 -111 184 -131 12 -19 -7 -48 -32 -48 -23 0 -172 86 -235 136 -55 43
-65 66 -36 85 19 12 42 4 119 -42z"/>
<path d="M6423 4031 c-35 -9 -79 -41 -102 -74 -10 -14 -17 -56 -21 -121 -5
-87 -9 -101 -29 -117 -29 -24 -36 -24 -61 1 -17 17 -18 24 -9 41 6 12 20 24
30 26 24 7 24 6 -7 81 -16 36 -33 62 -42 62 -21 0 -81 -39 -92 -60 -6 -10 -10
-46 -10 -80 0 -47 6 -73 29 -119 51 -101 120 -138 204 -110 101 33 136 89 136
222 1 63 5 81 21 97 11 11 24 20 29 20 46 0 57 -53 16 -72 -29 -13 -30 -17
-11 -55 8 -15 19 -40 25 -55 13 -33 32 -35 77 -8 48 30 71 96 54 153 -33 111
-85 168 -157 173 -26 2 -62 -1 -80 -5z"/>
<path d="M810 4011 c-51 -16 -73 -38 -106 -106 -55 -114 -42 -169 61 -247 74
-57 238 -118 314 -118 58 0 63 2 101 41 39 41 80 129 80 174 0 34 -18 76 -43
103 -21 23 -107 72 -126 72 -5 0 -15 -17 -22 -37 -6 -21 -18 -47 -25 -58 -22
-30 -17 -41 26 -60 77 -35 93 -85 27 -85 -42 0 -254 92 -286 125 -21 20 -22
26 -11 39 13 17 55 22 64 7 3 -5 15 -11 27 -14 18 -5 25 4 51 60 16 36 28 66
26 68 -32 27 -120 47 -158 36z"/>
<path d="M1200 1342 c-53 -53 -65 -101 -64 -262 1 -219 31 -269 168 -278 89
-5 157 15 184 55 21 33 24 44 29 121 l5 62 -75 0 -75 0 -4 -60 c-5 -68 -19
-91 -46 -74 -25 16 -34 76 -30 216 2 107 6 130 21 145 18 17 19 17 38 -6 10
-13 19 -38 19 -57 l0 -34 76 0 77 0 -6 48 c-18 135 -49 162 -193 162 l-86 0
-38 -38z"/>
<path d="M1639 1357 c-19 -12 -45 -43 -59 -67 -23 -43 -24 -53 -23 -202 0
-151 1 -158 27 -202 36 -62 84 -86 173 -86 87 0 136 26 169 90 22 42 24 55 24
200 -1 142 -3 159 -24 200 -35 70 -73 90 -171 90 -69 0 -87 -4 -116 -23z m148
-107 c17 -34 17 -286 0 -320 -17 -34 -48 -32 -66 5 -23 46 -20 284 3 320 21
31 46 29 63 -5z"/>
<path d="M2007 1374 c-4 -4 -7 -133 -7 -286 l0 -279 73 3 72 3 0 148 c0 81 1
147 2 147 3 0 41 -134 48 -166 3 -17 14 -53 23 -80 l18 -49 82 -3 82 -3 0 286
0 285 -70 0 -70 0 -1 -162 c-1 -120 -3 -154 -10 -128 -5 19 -18 67 -30 106
-11 39 -22 82 -24 95 -17 86 -14 84 -101 87 -44 1 -83 0 -87 -4z"/>
<path d="M2532 1359 c-18 -12 -42 -39 -52 -59 -43 -84 -50 -270 -15 -388 11
-38 25 -59 52 -79 32 -25 46 -28 122 -31 72 -2 91 0 118 17 50 31 67 67 73
148 l5 73 -71 0 -72 0 -4 -61 c-4 -55 -16 -78 -40 -79 -4 0 -16 12 -25 27 -15
23 -18 50 -18 163 0 113 3 140 18 163 9 15 21 27 25 27 21 -1 35 -22 39 -64
l6 -46 71 0 71 0 -2 51 c-2 64 -30 117 -73 141 -51 27 -183 25 -228 -3z"/>
<path d="M2885 1368 c-3 -7 -4 -135 -3 -283 l3 -270 170 0 170 0 0 60 0 60
-98 3 -98 3 3 47 3 47 88 3 87 3 0 59 0 60 -90 0 -90 0 0 40 0 39 98 3 97 3 0
65 0 65 -168 3 c-129 2 -169 0 -172 -10z"/>
<path d="M3280 1377 c-3 -3 -4 -132 -2 -287 l3 -281 70 3 71 3 2 105 1 105 26
3 c41 5 53 -21 59 -122 l5 -91 84 -3 c77 -3 83 -1 75 15 -4 10 -10 59 -14 108
-6 93 -21 131 -54 141 -17 6 -17 8 7 28 36 30 47 58 47 118 0 63 -24 109 -72
135 -26 14 -63 18 -168 21 -74 2 -137 1 -140 -1z m212 -134 c38 -34 10 -103
-43 -103 -28 0 -29 1 -29 53 0 30 3 57 7 60 12 12 46 7 65 -10z"/>
<path d="M3674 1366 c-3 -7 -4 -38 -2 -67 l3 -54 53 -3 52 -3 0 -215 0 -214
75 0 75 0 0 215 0 215 55 0 55 0 0 70 0 70 -180 0 c-144 0 -182 -3 -186 -14z"/>
<path d="M4480 1095 l0 -285 140 0 c169 0 199 9 230 71 30 59 25 157 -10 194
-13 14 -30 25 -38 25 -8 0 -1 12 17 31 32 31 36 51 31 134 -2 51 -38 90 -95
104 -24 6 -96 11 -159 11 l-116 0 0 -285z m209 151 c31 -38 8 -96 -39 -96 -18
0 -20 7 -20 55 0 51 2 55 24 55 13 0 29 -6 35 -14z m9 -218 c17 -17 15 -74 -4
-92 -8 -9 -26 -16 -40 -16 -23 0 -24 3 -24 60 0 59 0 60 28 60 15 0 33 -5 40
-12z"/>
<path d="M4997 1373 c-2 -4 -14 -48 -26 -98 -50 -204 -69 -284 -85 -350 -9
-38 -19 -80 -22 -92 -6 -22 -4 -23 75 -23 87 0 83 -3 93 65 3 17 12 20 60 23
41 2 56 -1 55 -10 0 -7 1 -28 1 -45 l2 -33 85 0 c47 0 85 4 85 9 0 5 -4 20 -9
34 -5 13 -12 41 -15 63 -4 21 -15 71 -26 109 -11 39 -22 84 -25 100 -3 17 -18
80 -34 140 l-29 110 -90 3 c-50 1 -92 -1 -95 -5z m102 -195 c0 -24 7 -69 14
-100 l14 -58 -39 0 c-33 0 -39 3 -34 18 2 9 10 44 16 77 22 122 28 134 29 63z"/>
<path d="M5340 1095 l0 -285 70 0 70 0 1 158 c1 86 3 148 6 137 2 -11 15 -58
29 -105 14 -47 32 -109 40 -138 l15 -53 80 3 80 3 0 280 0 280 -68 0 -68 0 0
-153 c0 -83 -3 -152 -7 -152 -5 0 -8 9 -8 20 0 11 -10 55 -21 98 -12 42 -29
103 -38 135 l-15 57 -83 0 -83 0 0 -285z"/>
<path d="M5800 1096 l0 -286 135 0 c155 0 195 12 230 72 18 30 20 51 20 208 0
162 -2 178 -22 210 -40 64 -71 75 -225 78 l-138 4 0 -286z m214 148 c13 -12
16 -41 16 -154 0 -150 -6 -170 -56 -170 l-24 0 0 170 0 170 24 0 c14 0 32 -7
40 -16z"/>
</g>
</svg>
